<svg version="1.1" id="Layer_1" xmlns="http://www.w3.org/2000/svg" xmlns:xlink="http://www.w3.org/1999/xlink" x="0px" y="0px"
	 width="100%" viewBox="0 0 1024 1024" enable-background="new 0 0 1024 1024" xml:space="preserve">
<path fill="#000000" opacity="1.000000" stroke="none" 
	d="
M501.274139,654.000000 
	C501.272064,674.999817 501.278809,695.499634 501.261139,715.999451 
	C501.255127,722.944641 500.856354,723.335632 493.880615,723.345764 
	C482.214081,723.362671 470.547485,723.361145 458.880951,723.341980 
	C451.753601,723.330322 451.656494,723.245728 451.655792,716.034546 
	C451.648926,643.201904 451.654968,570.369202 451.655731,497.536560 
	C451.655975,473.370117 451.656555,449.203644 451.645844,425.037201 
	C451.642456,417.444977 451.474457,417.117798 443.734467,417.348236 
	C433.103088,417.664825 422.328735,415.891327 411.865997,418.466827 
	C402.692841,420.724854 395.571381,425.947937 392.454681,435.434357 
	C388.655121,446.999176 396.766327,458.982605 408.921753,459.678925 
	C413.411865,459.936096 417.912231,460.038574 422.409576,460.137512 
	C426.016418,460.216858 428.043518,461.940399 428.051147,465.582489 
	C428.084045,481.246399 428.100861,496.910797 427.992859,512.574097 
	C427.974670,515.206055 427.079742,517.413513 423.595215,517.365112 
	C412.948883,517.217102 402.294464,517.770813 391.738800,515.571289 
	C358.452118,508.635162 334.762543,479.520294 334.620636,445.546326 
	C334.506134,418.132965 344.947235,396.111328 367.276642,379.955139 
	C379.831451,370.871246 394.274017,368.175201 409.330719,367.970367 
	C421.494049,367.804871 433.664185,367.928070 445.827942,368.128021 
	C450.031342,368.197083 452.063202,366.835541 451.714996,362.367828 
	C451.456726,359.054108 451.547058,355.701294 451.669403,352.372772 
	C451.832764,347.926666 449.905792,346.135590 445.388428,346.170074 
	C426.222992,346.316345 407.055939,346.251038 387.889465,346.256866 
	C363.389709,346.264343 338.889923,346.282166 314.390198,346.259094 
	C307.886261,346.252960 307.658386,346.010529 307.654022,339.474976 
	C307.633270,308.475372 307.642853,277.475739 307.637329,246.476135 
	C307.635925,238.711807 307.628540,238.692673 315.398132,238.692062 
	C439.563873,238.682236 563.729614,238.677643 687.895325,238.672104 
	C696.395264,238.671722 704.897522,238.790604 713.394165,238.624237 
	C717.590759,238.542084 719.403259,240.014893 719.388428,244.421356 
	C719.280823,276.420685 719.252808,308.420868 719.405579,340.419800 
	C719.430603,345.662384 716.831360,346.341187 712.535461,346.331268 
	C669.036072,346.231079 625.536377,346.252228 582.036804,346.234436 
	C573.599243,346.230988 573.203369,346.490112 573.410339,354.933899 
	C574.566284,402.089539 573.958496,449.253174 573.761597,496.408752 
	C573.661438,520.398682 573.540039,544.393921 573.380798,568.386353 
	C573.333923,575.453552 573.590332,575.660095 580.689880,575.665771 
	C592.356445,575.675049 604.023071,575.635010 615.689575,575.667603 
	C621.875000,575.684875 622.352661,576.170288 622.357117,582.135376 
	C622.367493,596.135193 622.188904,610.137756 622.427002,624.133423 
	C622.510010,629.012207 620.691650,630.446411 615.995850,630.421631 
	C587.663635,630.271973 559.330200,630.359741 530.997131,630.348877 
	C523.682373,630.346069 523.660950,630.314575 523.661316,622.641418 
	C523.664795,551.308655 523.678955,479.975891 523.684143,408.643127 
	C523.686462,376.976715 523.671448,345.310303 523.672974,313.643890 
	C523.673279,306.743683 523.694458,306.851929 530.596375,306.599792 
	C554.751709,305.717316 578.903015,306.962189 603.060059,306.629608 
	C622.711914,306.359039 642.370911,306.611206 662.026733,306.626190 
	C668.580872,306.631195 669.025574,306.147247 669.051758,299.464203 
	C669.062866,296.633881 669.207642,293.804352 669.253235,290.973846 
	C669.305908,287.711151 667.913330,286.175903 664.412231,286.287750 
	C658.251953,286.484528 652.080811,286.337433 645.914185,286.337158 
	C551.915039,286.333191 457.915833,286.328827 363.916656,286.328003 
	C357.386536,286.327942 357.256622,286.470795 357.205750,293.058258 
	C357.100677,306.662109 357.100586,306.611450 370.534180,306.587524 
	C394.522156,306.544800 418.510254,306.561859 442.498322,306.569336 
	C459.487274,306.574646 476.476196,306.602936 493.465149,306.625702 
	C501.069641,306.635895 501.278473,306.816986 501.277588,314.517761 
	C501.266266,412.516937 501.241852,510.516144 501.227539,608.515320 
	C501.225342,623.510193 501.257294,638.505127 501.274139,654.000000 
z"/>
<path fill="#000000" opacity="1.000000" stroke="none" 
	d="
M711.919556,583.235352 
	C712.114441,602.865112 712.326660,622.045349 706.306091,640.557739 
	C694.427795,677.081909 672.463684,704.405823 635.260864,717.572632 
	C625.486206,721.031982 615.354980,723.157043 604.981262,723.241211 
	C579.988159,723.443970 554.991943,723.250122 529.998657,723.440063 
	C525.284119,723.475891 523.502869,722.010376 523.576660,717.164917 
	C523.799805,702.504944 523.792542,687.837036 523.559998,673.177185 
	C523.487793,668.625366 525.340454,667.500732 529.485535,667.531067 
	C547.647278,667.663879 565.813171,667.760498 583.972290,667.500977 
	C593.421875,667.365906 602.956299,667.404053 612.041321,663.880249 
	C632.672424,655.878052 644.443787,640.062317 649.055969,619.315491 
	C653.466125,599.477783 653.360779,579.173706 647.315063,559.566772 
	C641.903442,542.016357 630.547668,529.459167 612.405090,524.089966 
	C609.247253,523.155457 605.899780,522.671448 602.606995,522.432068 
	C598.734131,522.150574 596.755981,520.412415 596.750793,516.523926 
	C596.729614,500.694183 596.744568,484.864319 596.684387,469.034729 
	C596.666321,464.312164 599.707703,463.565765 603.370300,463.741089 
	C625.415039,464.796448 646.200623,470.050751 664.330261,483.184113 
	C691.329041,502.742371 705.879028,529.617432 710.458923,562.370178 
	C711.410034,569.172058 710.943115,576.001038 711.919556,583.235352 
z"/>
<path fill="#000000" opacity="1.000000" stroke="none" 
	d="
M425.270142,679.182617 
	C430.073303,699.765503 415.960114,720.915588 394.958374,724.219788 
	C373.246155,727.635864 353.753235,713.350769 350.959991,691.440979 
	C349.033905,676.333130 356.561920,659.894348 373.928802,652.662109 
	C389.908813,646.007507 408.653717,651.239197 418.590363,664.904358 
	C421.663605,669.130798 423.976532,673.678467 425.270142,679.182617 
z"/>
<path fill="#000000" opacity="1.000000" stroke="none" 
	d="
M348.721130,603.278870 
	C350.183136,594.183289 355.535614,589.415466 363.924591,587.880371 
	C370.112274,586.748108 377.620422,590.683228 381.158417,596.649353 
	C384.553345,602.374390 384.171936,610.306763 380.253082,615.477722 
	C375.770355,621.392761 368.235535,624.263000 361.823975,622.498047 
	C354.594086,620.507812 349.485687,614.564941 348.734039,607.202454 
	C348.616302,606.049500 348.702240,604.875671 348.721130,603.278870 
z"/>
<path fill="#000000" opacity="1.000000" stroke="none" 
	d="
M415.367737,588.196411 
	C426.456482,590.416504 430.252625,599.440247 430.049072,606.668457 
	C429.808380,615.214417 422.660126,621.945190 413.398834,623.053589 
	C406.021942,623.936523 397.871216,617.624573 395.967346,609.554749 
	C393.878082,600.699097 398.451996,591.786316 406.692810,589.031433 
	C409.329742,588.149963 412.079132,587.200256 415.367737,588.196411 
z"/>
<path fill="#000000" opacity="1.000000" stroke="none" 
	d="
M613.674683,374.889526 
	C627.272095,376.940369 631.558411,389.755859 625.745544,399.322174 
	C621.913269,405.628967 613.713562,408.187805 606.442932,405.721863 
	C599.951172,403.520081 596.388550,397.629578 596.677612,389.576202 
	C596.944275,382.147766 601.330566,376.937836 608.828857,375.277679 
	C610.267578,374.959106 611.779419,374.971191 613.674683,374.889526 
z"/>
<path fill="#000000" opacity="1.000000" stroke="none" 
	d="
M641.159424,379.137634 
	C649.485962,372.932495 659.783508,374.019226 665.369507,381.408417 
	C670.467712,388.152374 669.176697,397.789368 662.440491,403.273102 
	C656.681946,407.960907 646.952454,407.728851 641.742065,402.779358 
	C635.225464,396.589081 634.877319,387.113617 641.159424,379.137634 
z"/>
<path fill="#000000" opacity="1.000000" stroke="none" 
	d="
M373.047241,791.380310 
	C362.936829,791.302246 361.969360,790.449280 361.942566,780.949036 
	C361.927612,775.645203 361.574768,770.333496 362.331573,765.026123 
	C362.815186,761.634399 364.674347,759.920715 367.884735,759.793640 
	C372.364288,759.616394 376.854950,759.698853 381.340790,759.708069 
	C384.102173,759.713745 385.862732,761.246338 386.048584,763.865723 
	C386.265594,766.923889 384.250732,768.235291 381.350464,768.453613 
	C378.459625,768.671265 375.577026,768.998108 372.503662,769.295166 
	C372.997040,772.276794 374.999084,771.604004 376.441193,771.689026 
	C379.366791,771.861389 382.338776,771.791260 382.284912,775.974365 
	C382.231140,780.148865 379.036560,779.892334 376.279572,780.242859 
	C375.475708,780.345093 374.663116,780.378540 372.766937,780.531006 
	C376.058044,782.551147 378.903748,781.775085 381.401794,782.444641 
	C383.827545,783.094788 385.325562,784.097168 385.302277,786.735413 
	C385.277191,789.578674 383.626892,791.024109 380.998535,791.252930 
	C378.522827,791.468506 376.018219,791.351990 373.047241,791.380310 
z"/>
<path fill="#000000" opacity="1.000000" stroke="none" 
	d="
M466.168518,782.297485 
	C467.512573,782.474915 468.509003,782.551147 469.488373,782.724121 
	C471.753693,783.124207 473.106689,784.554321 473.114044,786.796387 
	C473.121918,789.203979 471.850891,790.944336 469.318054,791.279175 
	C464.348206,791.936096 459.357391,791.508850 454.404358,791.117004 
	C451.951660,790.923035 450.758270,788.882385 450.733337,786.489685 
	C450.658966,779.346375 450.685944,772.202026 450.696014,765.058044 
	C450.700531,761.876831 452.554779,760.666931 455.498810,760.668884 
	C459.818298,760.671753 464.139801,760.748291 468.456543,760.638916 
	C471.324554,760.566223 473.639374,761.383484 473.710510,764.518250 
	C473.778656,767.522156 471.355255,768.687988 468.764404,769.211853 
	C466.396149,769.690796 463.801727,768.904602 461.554596,770.233826 
	C462.854248,774.785217 471.070312,769.860596 470.165466,776.915039 
	C469.654724,780.896667 465.738342,779.516296 463.525452,780.852173 
	C463.692352,782.419739 465.016693,781.884521 466.168518,782.297485 
z"/>
<path fill="#000000" opacity="1.000000" stroke="none" 
	d="
M407.322144,542.950012 
	C420.811157,539.419067 426.929626,550.997986 424.855835,558.505310 
	C423.109344,564.828125 418.049377,568.785645 411.760468,568.638489 
	C405.574890,568.493774 400.608856,564.325867 399.024078,557.949097 
	C397.495331,551.797791 400.376282,546.389648 407.322144,542.950012 
z"/>
<path fill="#000000" opacity="1.000000" stroke="none" 
	d="
M354.860657,559.677490 
	C353.538666,548.344971 357.784485,542.644226 367.157959,542.659668 
	C373.859802,542.670715 378.848083,546.816162 380.142365,553.450195 
	C381.248505,559.120056 377.408997,565.530151 371.590088,567.728149 
	C365.387756,570.071045 359.092926,567.753479 355.769104,561.884888 
	C355.442444,561.308105 355.221191,560.671570 354.860657,559.677490 
z"/>
<path fill="#000000" opacity="1.000000" stroke="none" 
	d="
M702.446045,762.438843 
	C706.905823,759.307861 711.369629,758.995728 716.034180,760.665039 
	C718.484985,761.542114 720.788696,762.707092 720.234375,765.903564 
	C719.681824,769.089783 717.336670,769.572754 714.578918,769.267700 
	C713.949158,769.197998 713.294189,769.356323 712.139343,769.452148 
	C713.326782,771.318420 715.123596,771.411133 716.463867,772.074707 
	C720.138123,773.893921 722.035583,776.898804 721.922974,780.828735 
	C721.810669,784.749451 719.829834,787.992310 716.047485,789.342102 
	C710.834839,791.202271 705.648560,791.096375 700.909912,787.631897 
	C698.554199,785.909729 697.617554,783.739990 699.188232,781.202454 
	C700.798462,778.601135 703.178711,779.474365 705.355164,780.531555 
	C709.527283,782.558044 709.516541,782.580139 712.702637,780.150757 
	C704.906128,776.784241 694.901184,774.482239 702.446045,762.438843 
z"/>
<path fill="#000000" opacity="1.000000" stroke="none" 
	d="
M538.535767,784.941528 
	C539.732300,787.345886 539.023560,788.901917 537.118042,789.840759 
	C534.858521,790.954041 532.747192,790.208984 531.287109,788.403015 
	C528.465698,784.913147 525.965881,781.920654 523.684448,788.788879 
	C523.208252,790.222534 521.657471,790.361145 520.252808,790.170105 
	C518.733093,789.963379 517.907898,789.028137 517.653137,787.557983 
	C516.360229,780.096802 516.630859,772.641357 517.860657,765.209839 
	C517.979553,764.491516 518.608398,763.678284 519.234253,763.253357 
	C522.564941,760.991638 533.388916,761.855896 536.530334,764.544739 
	C540.173462,767.663086 540.885803,773.217590 537.780762,778.626953 
	C536.373657,781.078186 537.408020,782.691406 538.535767,784.941528 
M528.078186,769.547302 
	C526.276611,769.365601 524.724060,769.673828 524.513062,771.844482 
	C524.365051,773.366516 525.183350,774.382935 526.715942,774.527832 
	C528.299561,774.677429 530.246948,775.162354 531.085815,773.326599 
	C532.040833,771.236816 530.096436,770.580017 528.078186,769.547302 
z"/>
<path fill="#000000" opacity="1.000000" stroke="none" 
	d="
M599.729858,424.096313 
	C601.686462,418.263428 605.893799,415.897003 611.266907,415.771027 
	C616.697754,415.643707 620.848389,418.166321 623.147888,423.264374 
	C625.395874,428.248291 624.079407,432.707092 620.828918,436.712646 
	C617.809570,440.433472 610.756836,441.781616 606.137085,439.704590 
	C600.882996,437.342407 598.437805,431.598328 599.729858,424.096313 
z"/>
<path fill="#000000" opacity="1.000000" stroke="none" 
	d="
M653.800110,415.771057 
	C659.809570,416.793121 663.727478,419.762939 665.011047,425.457825 
	C666.041260,430.028870 664.601013,434.075226 661.329041,437.310516 
	C657.642151,440.956177 651.799377,441.655853 646.932983,439.333282 
	C642.512451,437.223541 639.956970,432.312103 640.465759,426.903687 
	C640.982361,421.412170 643.968323,417.842102 649.463562,416.311554 
	C650.724915,415.960266 652.073669,415.922546 653.800110,415.771057 
z"/>
<path fill="#000000" opacity="1.000000" stroke="none" 
	d="
M332.436462,771.593262 
	C332.396240,776.828125 332.442505,781.643555 332.337708,786.455750 
	C332.281555,789.034363 331.187408,791.057678 328.299896,791.211426 
	C325.116974,791.380859 323.149384,789.564026 322.902039,786.550415 
	C322.563110,782.421448 322.513489,778.242615 322.716125,774.103516 
	C322.884735,770.660217 321.790283,768.734009 318.197205,768.420105 
	C315.136627,768.152710 312.463135,767.142517 312.824371,763.348572 
	C313.177216,759.642822 316.187286,759.053650 319.062469,758.973206 
	C324.706482,758.815125 330.361237,758.863770 336.006805,759.009521 
	C339.114685,759.089783 342.481140,759.761475 342.605316,763.595703 
	C342.729248,767.421631 339.704041,768.375854 336.372833,768.351318 
	C334.390045,768.336670 332.683716,768.733948 332.436462,771.593262 
z"/>
<path fill="#000000" opacity="1.000000" stroke="none" 
	d="
M658.759766,764.889893 
	C664.559448,760.938599 670.681274,762.957642 676.614929,763.117676 
	C678.085815,763.157349 678.336182,764.921326 678.257019,766.325928 
	C678.143738,768.335205 676.924011,769.153198 675.063293,769.483459 
	C672.983032,769.852539 670.302307,768.737488 669.012756,771.601562 
	C670.913269,774.099976 675.631958,770.866821 676.243652,775.414062 
	C677.116272,781.901672 669.818115,777.809326 668.375671,781.672974 
	C670.096130,783.365601 672.352905,782.480469 674.346680,782.665833 
	C676.853088,782.898682 678.355835,783.883118 678.408630,786.639771 
	C678.464111,789.535217 676.888611,790.388428 674.334839,790.351257 
	C671.514465,790.310181 668.692871,790.363892 665.872131,790.340759 
	C659.235596,790.286316 657.748779,789.083984 657.794312,782.623779 
	C657.835083,776.856384 656.843384,771.009766 658.759766,764.889893 
z"/>
<path fill="#000000" opacity="1.000000" stroke="none" 
	d="
M498.028595,780.161194 
	C496.193634,780.372681 494.644318,779.891235 492.968750,781.202881 
	C495.027283,783.394409 497.600708,782.434937 499.837708,782.636108 
	C502.390594,782.865906 505.101379,782.901550 505.214600,786.386902 
	C505.340912,790.275696 502.502045,790.346436 499.705505,790.340149 
	C496.879791,790.333740 494.045654,790.202271 491.230255,790.373108 
	C486.805206,790.641602 484.702240,788.629456 484.699036,784.272095 
	C484.694977,778.786987 484.707458,773.301880 484.691956,767.816772 
	C484.682312,764.410156 486.069885,762.519592 489.760284,762.640564 
	C493.745209,762.771240 497.737274,762.670349 501.725922,762.706238 
	C503.577789,762.722961 505.023834,763.408752 505.202240,765.479248 
	C505.389343,767.650513 504.299713,768.901733 502.156708,769.288147 
	C499.478058,769.770996 496.555939,769.464966 493.983276,771.621643 
	C496.512329,774.045410 501.969604,771.105957 502.221313,776.484192 
	C502.342194,779.066467 500.664398,779.921997 498.028595,780.161194 
z"/>
<path fill="#000000" opacity="1.000000" stroke="none" 
	d="
M632.812866,781.090088 
	C635.408569,778.890686 637.372681,779.514465 638.973633,781.792297 
	C640.628357,784.146729 639.245728,785.814941 637.534058,787.365295 
	C632.735291,791.712219 623.557861,791.419128 618.776978,786.756409 
	C613.664185,781.769958 613.101013,772.032043 617.612427,766.621216 
	C621.933777,761.438416 631.367676,760.320801 636.663513,764.335388 
	C638.878357,766.014404 640.277710,768.229004 638.818848,770.772095 
	C637.216309,773.565552 634.668213,772.941772 632.360168,771.348145 
	C629.423035,769.320190 626.540100,768.651306 624.058350,771.927795 
	C622.084534,774.533752 621.470337,777.424744 623.687256,780.185425 
	C626.197266,783.311096 629.272278,783.396484 632.812866,781.090088 
z"/>
<path fill="#000000" opacity="1.000000" stroke="none" 
	d="
M553.631592,763.227417 
	C557.851135,761.829590 559.859680,763.762146 561.196289,767.149597 
	C562.198730,769.690186 562.339600,772.718079 564.833862,774.543213 
	C567.670654,774.150208 568.054321,771.845764 568.916443,769.942261 
	C569.803589,767.983337 570.551819,765.928162 571.694275,764.126587 
	C573.136108,761.852966 575.495544,762.130310 577.488464,763.107605 
	C579.182251,763.938171 579.357300,765.633911 578.610474,767.433228 
	C576.065613,773.565125 573.671265,779.760864 571.038086,785.853882 
	C570.047302,788.146545 568.629700,790.249390 565.596802,790.298523 
	C562.466736,790.349243 561.307495,788.110352 560.281006,785.812683 
	C557.707397,780.052002 555.233398,774.246704 552.715576,768.461121 
	C551.938538,766.675659 551.622559,764.949829 553.631592,763.227417 
z"/>
<path fill="#000000" opacity="1.000000" stroke="none" 
	d="
M413.069000,790.204895 
	C411.243744,788.412109 410.740662,786.516052 410.730927,784.471252 
	C410.700897,778.169312 410.654022,771.866760 410.714874,765.565369 
	C410.744965,762.451843 411.807831,759.805908 415.454224,759.811523 
	C419.280426,759.817383 420.457092,762.315613 420.368011,765.820251 
	C420.266937,769.797974 420.400055,773.781006 420.344849,777.760620 
	C420.299652,781.019348 421.529663,782.759216 425.074585,782.502869 
	C427.044189,782.360413 429.054291,782.534302 431.027252,782.743591 
	C433.501068,783.005798 435.018677,784.557617 435.126740,786.976440 
	C435.240540,789.523438 433.546295,791.153931 431.155853,791.186401 
	C425.241547,791.266907 419.267090,792.249634 413.069000,790.204895 
z"/>
<path fill="#000000" opacity="1.000000" stroke="none" 
	d="
M594.502441,762.903931 
	C599.115112,761.667114 600.648926,763.869873 600.617004,767.714111 
	C600.567566,773.666260 600.407654,779.617371 600.324951,785.569336 
	C600.289001,788.156616 599.647034,790.274719 596.529907,790.239624 
	C593.495483,790.205444 592.684082,788.179932 592.686035,785.556091 
	C592.690552,779.435059 592.696045,773.314087 592.679077,767.193054 
	C592.674744,765.638550 593.047180,764.250610 594.502441,762.903931 
z"/>
</svg>